{
    "asset" : {
        "generator" : "Khronos glTF Blender I/O v3.2.43",
        "version" : "2.0"
    },
    "scene" : 0,
    "scenes" : [
        {
            "name" : "Scene",
            "nodes" : [
                0
            ]
        }
    ],
    "nodes" : [
        {
            "mesh" : 0,
            "name" : "snakeHead",
            "scale" : [
                0.10000000149011612,
                0.10000000149011612,
                0.15000000596046448
            ],
            "translation" : [
                0.7808435559272766,
                1.7991585731506348,
                0.7458876371383667
            ]
        }
    ],
    "materials" : [
        {
            "doubleSided" : true,
            "name" : "Material.008",
            "pbrMetallicRoughness" : {
                "baseColorFactor" : [
                    0,
                    0,
                    0,
                    1
                ],
                "metallicFactor" : 0,
                "roughnessFactor" : 0.5
            }
        },
        {
            "doubleSided" : true,
            "name" : "Material",
            "pbrMetallicRoughness" : {
                "baseColorFactor" : [
                    0.022007640451192856,
                    0.2529410123825073,
                    0,
                    1
                ],
                "metallicFactor" : 0,
                "roughnessFactor" : 0.4000000059604645
            }
        },
        {
            "doubleSided" : true,
            "name" : "Material.001",
            "pbrMetallicRoughness" : {
                "baseColorFactor" : [
                    0.004289513919502497,
                    0.21403273940086365,
                    0,
                    1
                ],
                "metallicFactor" : 0,
                "roughnessFactor" : 0.5
            }
        },
        {
            "doubleSided" : true,
            "name" : "Material.002",
            "pbrMetallicRoughness" : {
                "baseColorFactor" : [
                    0.44797635078430176,
                    0.044698428362607956,
                    0.4183177947998047,
                    1
                ],
                "metallicFactor" : 0,
                "roughnessFactor" : 0.5
            }
        },
        {
            "doubleSided" : true,
            "name" : "Material.006",
            "pbrMetallicRoughness" : {
                "baseColorFactor" : [
                    0.8000000715255737,
                    0.04681318998336792,
                    0.4819314181804657,
                    1
                ],
                "metallicFactor" : 0,
                "roughnessFactor" : 0.5
            }
        },
        {
            "doubleSided" : true,
            "name" : "Material.003",
            "pbrMetallicRoughness" : {
                "baseColorFactor" : [
                    0.9848839044570923,
                    0.07097479701042175,
                    0.8983362913131714,
                    1
                ],
                "metallicFactor" : 0,
                "roughnessFactor" : 0.5
            }
        },
        {
            "doubleSided" : true,
            "name" : "Material.005",
            "pbrMetallicRoughness" : {
                "baseColorFactor" : [
                    0.8000000715255737,
                    0.0362832136452198,
                    0.6137390732765198,
                    1
                ],
                "metallicFactor" : 0,
                "roughnessFactor" : 0.5
            }
        },
        {
            "doubleSided" : true,
            "name" : "Material.004",
            "pbrMetallicRoughness" : {
                "baseColorFactor" : [
                    0.8000000715255737,
                    0.0646507516503334,
                    0.561896026134491,
                    1
                ],
                "metallicFactor" : 0,
                "roughnessFactor" : 0.5
            }
        },
        {
            "doubleSided" : true,
            "name" : "Material.007",
            "pbrMetallicRoughness" : {
                "baseColorFactor" : [
                    0,
                    0,
                    0,
                    1
                ],
                "metallicFactor" : 0,
                "roughnessFactor" : 0.5
            }
        }
    ],
    "meshes" : [
        {
            "name" : "Cube.006",
            "primitives" : [
                {
                    "attributes" : {
                        "POSITION" : 0,
                        "NORMAL" : 1,
                        "TEXCOORD_0" : 2
                    },
                    "indices" : 3,
                    "material" : 0
                },
                {
                    "attributes" : {
                        "POSITION" : 4,
                        "NORMAL" : 5,
                        "TEXCOORD_0" : 6
                    },
                    "indices" : 7,
                    "material" : 1
                },
                {
                    "attributes" : {
                        "POSITION" : 8,
                        "NORMAL" : 9,
                        "TEXCOORD_0" : 10
                    },
                    "indices" : 11,
                    "material" : 2
                },
                {
                    "attributes" : {
                        "POSITION" : 12,
                        "NORMAL" : 13,
                        "TEXCOORD_0" : 14
                    },
                    "indices" : 15
                },
                {
                    "attributes" : {
                        "POSITION" : 16,
                        "NORMAL" : 17,
                        "TEXCOORD_0" : 18
                    },
                    "indices" : 19,
                    "material" : 3
                },
                {
                    "attributes" : {
                        "POSITION" : 20,
                        "NORMAL" : 21,
                        "TEXCOORD_0" : 22
                    },
                    "indices" : 23,
                    "material" : 4
                },
                {
                    "attributes" : {
                        "POSITION" : 24,
                        "NORMAL" : 25,
                        "TEXCOORD_0" : 26
                    },
                    "indices" : 27,
                    "material" : 5
                },
                {
                    "attributes" : {
                        "POSITION" : 28,
                        "NORMAL" : 29,
                        "TEXCOORD_0" : 30
                    },
                    "indices" : 31,
                    "material" : 6
                },
                {
                    "attributes" : {
                        "POSITION" : 32,
                        "NORMAL" : 33,
                        "TEXCOORD_0" : 34
                    },
                    "indices" : 35,
                    "material" : 7
                },
                {
                    "attributes" : {
                        "POSITION" : 36,
                        "NORMAL" : 37,
                        "TEXCOORD_0" : 38
                    },
                    "indices" : 3,
                    "material" : 8
                }
            ]
        }
    ],
    "accessors" : [
        {
            "bufferView" : 0,
            "componentType" : 5126,
            "count" : 24,
            "max" : [
                1,
                1,
                1
            ],
            "min" : [
                -1,
                -1,
                -1
            ],
            "type" : "VEC3"
        },
        {
            "bufferView" : 1,
            "componentType" : 5126,
            "count" : 24,
            "type" : "VEC3"
        },
        {
            "bufferView" : 2,
            "componentType" : 5126,
            "count" : 24,
            "type" : "VEC2"
        },
        {
            "bufferView" : 3,
            "componentType" : 5123,
            "count" : 36,
            "type" : "SCALAR"
        },
        {
            "bufferView" : 4,
            "componentType" : 5126,
            "count" : 18,
            "max" : [
                12.596050262451172,
                -0.40286970138549805,
                2.8769822120666504
            ],
            "min" : [
                -25.998809814453125,
                -10.724470138549805,
                -11.123019218444824
            ],
            "type" : "VEC3"
        },
        {
            "bufferView" : 5,
            "componentType" : 5126,
            "count" : 18,
            "type" : "VEC3"
        },
        {
            "bufferView" : 6,
            "componentType" : 5126,
            "count" : 18,
            "type" : "VEC2"
        },
        {
            "bufferView" : 7,
            "componentType" : 5123,
            "count" : 24,
            "type" : "SCALAR"
        },
        {
            "bufferView" : 8,
            "componentType" : 5126,
            "count" : 48,
            "max" : [
                14.882709503173828,
                -0.5044171810150146,
                3.882751941680908
            ],
            "min" : [
                -25.117286682128906,
                -12.52260684967041,
                -12.11724853515625
            ],
            "type" : "VEC3"
        },
        {
            "bufferView" : 9,
            "componentType" : 5126,
            "count" : 48,
            "type" : "VEC3"
        },
        {
            "bufferView" : 10,
            "componentType" : 5126,
            "count" : 48,
            "type" : "VEC2"
        },
        {
            "bufferView" : 11,
            "componentType" : 5123,
            "count" : 72,
            "type" : "SCALAR"
        },
        {
            "bufferView" : 12,
            "componentType" : 5126,
            "count" : 512,
            "max" : [
                14.749948501586914,
                -2.724810838699341,
                3.2410268783569336
            ],
            "min" : [
                10.351118087768555,
                -10.648092269897461,
                -11.721595764160156
            ],
            "type" : "VEC3"
        },
        {
            "bufferView" : 13,
            "componentType" : 5126,
            "count" : 512,
            "type" : "VEC3"
        },
        {
            "bufferView" : 14,
            "componentType" : 5126,
            "count" : 512,
            "type" : "VEC2"
        },
        {
            "bufferView" : 15,
            "componentType" : 5123,
            "count" : 744,
            "type" : "SCALAR"
        },
        {
            "bufferView" : 16,
            "componentType" : 5126,
            "count" : 20,
            "max" : [
                18.775861740112305,
                -8.605327606201172,
                -2.1646480560302734
            ],
            "min" : [
                -13.224133491516113,
                -10.605329513549805,
                -4.831314563751221
            ],
            "type" : "VEC3"
        },
        {
            "bufferView" : 17,
            "componentType" : 5126,
            "count" : 20,
            "type" : "VEC3"
        },
        {
            "bufferView" : 18,
            "componentType" : 5126,
            "count" : 20,
            "type" : "VEC2"
        },
        {
            "bufferView" : 19,
            "componentType" : 5123,
            "count" : 30,
            "type" : "SCALAR"
        },
        {
            "bufferView" : 20,
            "componentType" : 5126,
            "count" : 24,
            "max" : [
                21.281190872192383,
                -8.772245407104492,
                -2.690067768096924
            ],
            "min" : [
                14.210123062133789,
                -10.372246742248535,
                -7.404112339019775
            ],
            "type" : "VEC3"
        },
        {
            "bufferView" : 21,
            "componentType" : 5126,
            "count" : 24,
            "type" : "VEC3"
        },
        {
            "bufferView" : 22,
            "componentType" : 5126,
            "count" : 24,
            "type" : "VEC2"
        },
        {
            "bufferView" : 23,
            "componentType" : 5123,
            "count" : 36,
            "type" : "SCALAR"
        },
        {
            "bufferView" : 24,
            "componentType" : 5126,
            "count" : 4,
            "max" : [
                18.775861740112305,
                -8.605327606201172,
                -2.1646480560302734
            ],
            "min" : [
                -13.224132537841797,
                -8.605329513549805,
                -4.831314563751221
            ],
            "type" : "VEC3"
        },
        {
            "bufferView" : 25,
            "componentType" : 5126,
            "count" : 4,
            "type" : "VEC3"
        },
        {
            "bufferView" : 26,
            "componentType" : 5126,
            "count" : 4,
            "type" : "VEC2"
        },
        {
            "bufferView" : 27,
            "componentType" : 5123,
            "count" : 6,
            "type" : "SCALAR"
        },
        {
            "bufferView" : 28,
            "componentType" : 5126,
            "count" : 20,
            "max" : [
                21.26841926574707,
                -8.743634223937988,
                0.393247127532959
            ],
            "min" : [
                14.197349548339844,
                -10.343635559082031,
                -4.320797443389893
            ],
            "type" : "VEC3"
        },
        {
            "bufferView" : 29,
            "componentType" : 5126,
            "count" : 20,
            "type" : "VEC3"
        },
        {
            "bufferView" : 30,
            "componentType" : 5126,
            "count" : 20,
            "type" : "VEC2"
        },
        {
            "bufferView" : 31,
            "componentType" : 5123,
            "count" : 30,
            "type" : "SCALAR"
        },
        {
            "bufferView" : 32,
            "componentType" : 5126,
            "count" : 4,
            "max" : [
                21.26841926574707,
                -8.743635177612305,
                0.393247127532959
            ],
            "min" : [
                19.854204177856445,
                -10.343634605407715,
                -0.5495617389678955
            ],
            "type" : "VEC3"
        },
        {
            "bufferView" : 33,
            "componentType" : 5126,
            "count" : 4,
            "type" : "VEC3"
        },
        {
            "bufferView" : 34,
            "componentType" : 5126,
            "count" : 4,
            "type" : "VEC2"
        },
        {
            "bufferView" : 35,
            "componentType" : 5123,
            "count" : 6,
            "type" : "SCALAR"
        },
        {
            "bufferView" : 36,
            "componentType" : 5126,
            "count" : 24,
            "max" : [
                0.9778141975402832,
                1.060190200805664,
                -7.160247802734375
            ],
            "min" : [
                -1.0221858024597168,
                -0.9398097991943359,
                -9.160247802734375
            ],
            "type" : "VEC3"
        },
        {
            "bufferView" : 37,
            "componentType" : 5126,
            "count" : 24,
            "type" : "VEC3"
        },
        {
            "bufferView" : 38,
            "componentType" : 5126,
            "count" : 24,
            "type" : "VEC2"
        }
    ],
    "bufferViews" : [
        {
            "buffer" : 0,
            "byteLength" : 288,
            "byteOffset" : 0
        },
        {
            "buffer" : 0,
            "byteLength" : 288,
            "byteOffset" : 288
        },
        {
            "buffer" : 0,
            "byteLength" : 192,
            "byteOffset" : 576
        },
        {
            "buffer" : 0,
            "byteLength" : 72,
            "byteOffset" : 768
        },
        {
            "buffer" : 0,
            "byteLength" : 216,
            "byteOffset" : 840
        },
        {
            "buffer" : 0,
            "byteLength" : 216,
            "byteOffset" : 1056
        },
        {
            "buffer" : 0,
            "byteLength" : 144,
            "byteOffset" : 1272
        },
        {
            "buffer" : 0,
            "byteLength" : 48,
            "byteOffset" : 1416
        },
        {
            "buffer" : 0,
            "byteLength" : 576,
            "byteOffset" : 1464
        },
        {
            "buffer" : 0,
            "byteLength" : 576,
            "byteOffset" : 2040
        },
        {
            "buffer" : 0,
            "byteLength" : 384,
            "byteOffset" : 2616
        },
        {
            "buffer" : 0,
            "byteLength" : 144,
            "byteOffset" : 3000
        },
        {
            "buffer" : 0,
            "byteLength" : 6144,
            "byteOffset" : 3144
        },
        {
            "buffer" : 0,
            "byteLength" : 6144,
            "byteOffset" : 9288
        },
        {
            "buffer" : 0,
            "byteLength" : 4096,
            "byteOffset" : 15432
        },
        {
            "buffer" : 0,
            "byteLength" : 1488,
            "byteOffset" : 19528
        },
        {
            "buffer" : 0,
            "byteLength" : 240,
            "byteOffset" : 21016
        },
        {
            "buffer" : 0,
            "byteLength" : 240,
            "byteOffset" : 21256
        },
        {
            "buffer" : 0,
            "byteLength" : 160,
            "byteOffset" : 21496
        },
        {
            "buffer" : 0,
            "byteLength" : 60,
            "byteOffset" : 21656
        },
        {
            "buffer" : 0,
            "byteLength" : 288,
            "byteOffset" : 21716
        },
        {
            "buffer" : 0,
            "byteLength" : 288,
            "byteOffset" : 22004
        },
        {
            "buffer" : 0,
            "byteLength" : 192,
            "byteOffset" : 22292
        },
        {
            "buffer" : 0,
            "byteLength" : 72,
            "byteOffset" : 22484
        },
        {
            "buffer" : 0,
            "byteLength" : 48,
            "byteOffset" : 22556
        },
        {
            "buffer" : 0,
            "byteLength" : 48,
            "byteOffset" : 22604
        },
        {
            "buffer" : 0,
            "byteLength" : 32,
            "byteOffset" : 22652
        },
        {
            "buffer" : 0,
            "byteLength" : 12,
            "byteOffset" : 22684
        },
        {
            "buffer" : 0,
            "byteLength" : 240,
            "byteOffset" : 22696
        },
        {
            "buffer" : 0,
            "byteLength" : 240,
            "byteOffset" : 22936
        },
        {
            "buffer" : 0,
            "byteLength" : 160,
            "byteOffset" : 23176
        },
        {
            "buffer" : 0,
            "byteLength" : 60,
            "byteOffset" : 23336
        },
        {
            "buffer" : 0,
            "byteLength" : 48,
            "byteOffset" : 23396
        },
        {
            "buffer" : 0,
            "byteLength" : 48,
            "byteOffset" : 23444
        },
        {
            "buffer" : 0,
            "byteLength" : 32,
            "byteOffset" : 23492
        },
        {
            "buffer" : 0,
            "byteLength" : 12,
            "byteOffset" : 23524
        },
        {
            "buffer" : 0,
            "byteLength" : 288,
            "byteOffset" : 23536
        },
        {
            "buffer" : 0,
            "byteLength" : 288,
            "byteOffset" : 23824
        },
        {
            "buffer" : 0,
            "byteLength" : 192,
            "byteOffset" : 24112
        }
    ],
    "buffers" : [
        {
            "byteLength" : 24304,
            "uri" : "data:application/octet-stream;base64,"
        }
    ]
}
